<?xml version="1.0" encoding="UTF-8"?>
<svg xmlns="http://www.w3.org/2000/svg" width="455" height="112" viewBox="0 0 455 112" fill="none">
  <path d="M105.185 82.2388V76.0972H107.835C110.119 76.0972 111.929 75.4292 113.266 74.0932C114.602 72.714 115.27 70.8608 115.27 68.5335V34.0762H121.67V68.4042C121.67 71.2056 121.088 73.6406 119.924 75.7093C118.804 77.7781 117.209 79.3943 115.14 80.5579C113.072 81.6785 110.636 82.2388 107.835 82.2388H105.185ZM142.405 83.0145C140.121 83.0145 138.095 82.6051 136.328 81.7862C134.604 80.9243 133.247 79.7606 132.255 78.2953C131.264 76.7868 130.768 75.0629 130.768 73.1234C130.768 71.2702 131.156 69.6109 131.932 68.1456C132.751 66.6371 134.001 65.3657 135.682 64.3313C137.406 63.297 139.56 62.5643 142.146 62.1333L155.076 60V65.0425L143.504 66.9819C141.263 67.3698 139.625 68.0809 138.591 69.1153C137.599 70.1496 137.104 71.421 137.104 72.9295C137.104 74.3517 137.664 75.537 138.785 76.4851C139.948 77.4333 141.392 77.9074 143.116 77.9074C145.314 77.9074 147.21 77.4548 148.805 76.5498C150.443 75.6016 151.714 74.3302 152.619 72.7356C153.567 71.1409 154.042 69.3739 154.042 67.4344V58.5777C154.042 56.6814 153.33 55.1514 151.908 53.9877C150.529 52.781 148.697 52.1776 146.413 52.1776C144.431 52.1776 142.664 52.6948 141.112 53.7291C139.604 54.7204 138.483 56.0564 137.75 57.7373L132.514 55.0221C133.16 53.4274 134.195 52.0052 135.617 50.7553C137.039 49.4624 138.698 48.4496 140.595 47.7169C142.491 46.9842 144.474 46.6179 146.542 46.6179C149.215 46.6179 151.563 47.1351 153.589 48.1694C155.615 49.1607 157.188 50.5614 158.308 52.3715C159.472 54.1386 160.054 56.2073 160.054 58.5777V82.2388H154.171V75.6447L155.27 76.0326C154.537 77.4117 153.546 78.6185 152.296 79.6529C151.046 80.6872 149.581 81.5061 147.9 82.1095C146.219 82.7129 144.387 83.0145 142.405 83.0145ZM170.022 82.2388V33.3004H176.034V66.8526L173.578 66.2708L192.067 47.3936H199.76L186.378 61.4222L200.665 82.2388H193.554L180.495 63.3616L184.245 63.1677L174.095 73.7699L176.034 69.3739V82.2388H170.022ZM206.717 82.2388V47.3936H212.73V82.2388H206.717ZM206.717 41.8339V34.0762H212.73V41.8339H206.717ZM222.705 82.2388V47.3936H228.588V54.1817L227.618 53.5998C228.48 51.4018 229.859 49.6994 231.756 48.4927C233.695 47.2428 235.958 46.6179 238.544 46.6179C241.043 46.6179 243.263 47.1782 245.202 48.2987C247.185 49.4193 248.736 50.9708 249.857 52.9533C251.021 54.9359 251.603 57.177 251.603 59.6767V82.2388H245.526V61.6161C245.526 59.6767 245.181 58.039 244.491 56.7029C243.802 55.3669 242.81 54.3325 241.518 53.5998C240.268 52.8241 238.824 52.4362 237.186 52.4362C235.548 52.4362 234.083 52.8241 232.79 53.5998C231.54 54.3325 230.549 55.3884 229.816 56.7676C229.084 58.1036 228.717 59.7198 228.717 61.6161V82.2388H222.705Z" fill="#165086"></path>
  <path d="M278.113 83.0145C275.053 83.0145 272.252 82.4543 269.709 81.3337C267.166 80.17 265.011 78.5969 263.244 76.6144C261.477 74.6319 260.206 72.4123 259.43 69.9557L264.925 67.693C266.089 70.7961 267.813 73.1881 270.097 74.8689C272.424 76.5067 275.139 77.3255 278.242 77.3255C280.139 77.3255 281.798 77.0239 283.22 76.4205C284.643 75.8171 285.742 74.9767 286.517 73.8992C287.336 72.7787 287.746 71.4857 287.746 70.0203C287.746 67.9947 287.164 66.4001 286 65.2364C284.88 64.0297 283.22 63.1246 281.022 62.5212L272.166 59.806C268.675 58.7285 266.002 57.0262 264.149 54.6988C262.296 52.3715 261.369 49.6994 261.369 46.6825C261.369 44.0535 261.994 41.7477 263.244 39.7652C264.537 37.7396 266.304 36.1665 268.545 35.0459C270.83 33.8823 273.415 33.3004 276.303 33.3004C279.191 33.3004 281.798 33.8176 284.125 34.852C286.496 35.8863 288.5 37.287 290.138 39.0541C291.775 40.778 292.982 42.7606 293.758 45.0017L288.328 47.2643C287.293 44.5491 285.742 42.502 283.673 41.1228C281.604 39.7006 279.169 38.9894 276.368 38.9894C274.644 38.9894 273.114 39.2911 271.778 39.8945C270.485 40.4548 269.472 41.2952 268.739 42.4158C268.05 43.4932 267.705 44.7862 267.705 46.2946C267.705 48.0617 268.265 49.6348 269.386 51.0139C270.506 52.3931 272.209 53.449 274.493 54.1817L282.574 56.5736C286.367 57.7373 289.233 59.3966 291.172 61.5515C293.111 63.7064 294.081 66.3785 294.081 69.5678C294.081 72.1968 293.392 74.5241 292.012 76.5498C290.676 78.5754 288.802 80.17 286.388 81.3337C284.018 82.4543 281.259 83.0145 278.113 83.0145ZM315.64 83.0145C313.14 83.0145 310.878 82.4327 308.852 81.2691C306.87 80.1054 305.318 78.4892 304.198 76.4205C303.12 74.3086 302.581 71.8951 302.581 69.1799V47.3936H308.594V68.5335C308.594 70.2574 308.938 71.7658 309.628 73.0588C310.361 74.3517 311.352 75.3646 312.602 76.0972C313.895 76.8299 315.36 77.1962 316.998 77.1962C318.636 77.1962 320.079 76.8299 321.329 76.0972C322.622 75.3646 323.613 74.3086 324.303 72.9295C325.036 71.5503 325.402 69.9126 325.402 68.0163V47.3936H331.479V82.2388H325.596V75.4508L326.566 76.0326C325.747 78.2306 324.346 79.9545 322.364 81.2044C320.424 82.4112 318.183 83.0145 315.64 83.0145ZM341.44 82.2388V47.3936H347.323V54.5049L346.482 53.4059C347.344 51.2079 348.723 49.527 350.62 48.3634C352.516 47.1997 354.649 46.6179 357.02 46.6179C359.735 46.6179 362.17 47.3721 364.325 48.8805C366.523 50.389 368.031 52.3715 368.85 54.8281L367.169 54.8928C368.075 52.1776 369.605 50.1304 371.759 48.7512C373.914 47.329 376.306 46.6179 378.935 46.6179C381.349 46.6179 383.525 47.1782 385.465 48.2987C387.447 49.4193 389.02 50.9708 390.184 52.9533C391.348 54.9359 391.93 57.177 391.93 59.6767V82.2388H385.853V61.6161C385.853 59.6767 385.508 58.039 384.818 56.7029C384.129 55.3669 383.181 54.3325 381.974 53.5998C380.81 52.8241 379.431 52.4362 377.836 52.4362C376.285 52.4362 374.884 52.8241 373.634 53.5998C372.427 54.3325 371.458 55.3884 370.725 56.7676C370.036 58.1036 369.691 59.7198 369.691 61.6161V82.2388H363.614V61.6161C363.614 59.6767 363.269 58.039 362.579 56.7029C361.89 55.3669 360.942 54.3325 359.735 53.5998C358.571 52.8241 357.192 52.4362 355.598 52.4362C354.046 52.4362 352.645 52.8241 351.395 53.5998C350.189 54.3325 349.219 55.3884 348.486 56.7676C347.797 58.1036 347.452 59.7198 347.452 61.6161V82.2388H341.44ZM411.329 83.0145C409.045 83.0145 407.02 82.6051 405.253 81.7862C403.529 80.9243 402.171 79.7606 401.18 78.2953C400.188 76.7868 399.693 75.0629 399.693 73.1234C399.693 71.2702 400.081 69.6109 400.856 68.1456C401.675 66.6371 402.925 65.3657 404.606 64.3313C406.33 63.297 408.485 62.5643 411.071 62.1333L424 60V65.0425L412.428 66.9819C410.187 67.3698 408.55 68.0809 407.515 69.1153C406.524 70.1496 406.028 71.421 406.028 72.9295C406.028 74.3517 406.589 75.537 407.709 76.4851C408.873 77.4333 410.317 77.9074 412.041 77.9074C414.239 77.9074 416.135 77.4548 417.73 76.5498C419.367 75.6016 420.639 74.3302 421.544 72.7356C422.492 71.1409 422.966 69.3739 422.966 67.4344V58.5777C422.966 56.6814 422.255 55.1514 420.833 53.9877C419.453 52.781 417.622 52.1776 415.338 52.1776C413.355 52.1776 411.588 52.6948 410.036 53.7291C408.528 54.7204 407.407 56.0564 406.675 57.7373L401.438 55.0221C402.085 53.4274 403.119 52.0052 404.541 50.7553C405.964 49.4624 407.623 48.4496 409.519 47.7169C411.416 46.9842 413.398 46.6179 415.467 46.6179C418.139 46.6179 420.488 47.1351 422.513 48.1694C424.539 49.1607 426.112 50.5614 427.233 52.3715C428.396 54.1386 428.978 56.2073 428.978 58.5777V82.2388H423.095V75.6447L424.194 76.0326C423.462 77.4117 422.47 78.6185 421.22 79.6529C419.971 80.6872 418.505 81.5061 416.824 82.1095C415.144 82.7129 413.312 83.0145 411.329 83.0145Z" fill="#15EC8C"></path>
  <g clip-path="url(#clip0_2305_8757)">
    <path d="M81.8528 67.5029C81.8528 72.1632 80.3146 76.6921 77.4766 80.3903C74.6386 84.0885 70.6617 86.7469 66.1596 87.9529C61.6574 89.1588 56.8846 88.8453 52.5781 87.0632C48.2716 85.2811 44.6752 82.1269 42.3464 78.0883C41.6282 76.8449 41.044 75.5371 40.5938 74.1891L32.4497 82.3332C32.6453 82.7084 32.849 83.0782 33.0634 83.448C36.574 89.5286 41.9927 94.28 48.4779 96.9652C54.9632 99.6504 62.1559 100.122 68.9359 98.3051C75.7159 96.4882 81.7081 92.4845 85.9824 86.9158C90.2568 81.347 92.5722 74.5214 92.5722 67.5029V22.2134L81.8528 32.9328V67.5029Z" fill="#15EC8C"></path>
    <path d="M39.6947 64.7409C40.303 60.1208 42.4174 55.8303 45.7136 52.5341C49.0098 49.2379 53.3003 47.1235 57.9203 46.5152C61.0826 46.0998 64.2796 46.4053 67.2757 47.3861L75.4332 39.2287C69.634 36.2031 63.0308 35.0293 56.5215 35.8869C49.5619 36.8034 43.0981 39.9897 38.135 44.9555C33.1719 49.9186 29.9829 56.3824 29.0664 63.342C28.2061 69.8808 29.396 76.5161 32.4537 82.3368L40.5978 74.1927C39.5902 71.1698 39.2739 67.9379 39.6947 64.7435V64.7409Z" fill="#165086"></path>
    <path d="M41.3891 22.2133V22.2803C18.8301 23.5317 0.92334 42.2184 0.92334 65.0909C0.92334 78.3749 6.96373 90.2467 16.4477 98.1121L24.0719 90.4879C16.5094 84.6029 11.6428 75.4164 11.6428 65.0909C11.6428 47.3315 26.0416 32.9327 43.801 32.9327H81.8549L92.5743 22.2133H41.3891Z" fill="#165086"></path>
  </g>
  <defs>
    <clipPath id="clip0_2305_8757">
      <rect width="91.651" height="77.1798" fill="white" transform="translate(0.92334 22.2133)"></rect>
    </clipPath>
  </defs>
</svg>
