<?xml version="1.0" encoding="UTF-8"?>
<svg xmlns="http://www.w3.org/2000/svg" width="482" height="481" viewBox="0 0 482 481" fill="none">
  <g clip-path="url(#clip0_2305_8201)">
    <path opacity="0.1" d="M463.877 332.758C461.405 338.681 458.707 344.441 455.806 350.034C406.353 445.398 296.272 493.942 197.463 478.172C104.033 463.27 11.4016 389.333 2.20211 300.881C1.20632 291.288 -2.4063 239.652 28.4747 194.975C54.0004 158.038 78.5188 162.316 118.263 122.253C168.406 71.7112 154.048 40.0313 188.356 16.6303C241.15 -19.3801 339.676 11.5993 397.796 61.1339C468.989 121.796 505.717 232.566 463.877 332.77V332.758Z" fill="#13F08E"></path>
    <path opacity="0.1" d="M471.872 310.417C469.62 317.908 466.963 325.365 463.871 332.764C461.399 338.686 458.701 344.447 455.801 350.04C406.347 445.404 296.266 493.948 197.458 478.178C104.033 463.27 11.4018 389.333 2.20234 300.881C1.64656 295.514 0.268664 276.982 4.57602 253.871L471.878 310.417H471.872Z" fill="#13F08E"></path>
    <path d="M25.7498 92.3902L24.8809 98.0228L30.8061 100.414C30.8421 101.76 30.9907 103.084 31.2519 104.38L25.993 107.766L28.1181 113.129L34.4081 112.318C35.1195 113.462 35.9209 114.551 36.8124 115.569L34.0344 121.125L38.5864 124.785L43.5481 120.994C44.7277 121.643 45.9704 122.201 47.2716 122.66L47.7264 128.896L53.485 129.873L55.7948 124.11C57.1636 124.101 58.5143 123.984 59.829 123.759L63.395 128.995L68.816 127.023L67.8524 120.832C69.0051 120.161 70.0947 119.396 71.1167 118.541L76.8439 121.386L80.4774 116.996L76.5062 112.048C77.1455 110.904 77.6858 109.693 78.1226 108.433L84.4665 108.117L85.3355 102.485L79.4103 100.094C79.3742 98.7477 79.2257 97.424 78.9645 96.1273L84.2234 92.7414L82.0982 87.379L75.8083 88.1894C75.0969 87.0458 74.2955 85.9562 73.404 84.9386L76.182 79.3826L71.63 75.7221L66.6683 79.5132C65.4886 78.8648 64.2459 78.3065 62.9447 77.8472L62.49 71.6113L56.7313 70.6343L54.4216 76.3974C53.0528 76.4064 51.7021 76.5235 50.3873 76.7486L46.8214 71.5123L41.3959 73.4843L42.3594 79.6752C41.2068 80.3461 40.1172 81.1115 39.0952 81.967L33.368 79.1214L29.7345 83.5113L33.7057 88.4596C33.0663 89.6032 32.5261 90.8143 32.0893 92.075L25.7453 92.3902H25.7498ZM57.3527 85.7581C65.5427 87.1448 71.1753 94.7585 69.9371 102.764C68.6989 110.769 61.0582 116.136 52.8682 114.749C44.6782 113.363 39.0456 105.749 40.2838 97.7436C41.522 89.7383 49.1627 84.3713 57.3527 85.7581Z" fill="#13F08E"></path>
    <path d="M86.0278 133.317L80.5394 142.846L89.542 151.281C88.6735 153.725 88.0135 156.214 87.5793 158.732L75.7515 161.158L75.8383 172.291L87.7241 175.215C88.2046 177.768 88.8935 180.287 89.7909 182.741L80.9214 190.806L86.5662 200.567L98.1335 197.198C99.8067 199.189 101.659 201.059 103.674 202.79L100.154 214.329L109.84 220.095L118.015 211.33C120.487 212.268 122.993 212.997 125.518 213.507L128.285 225.41L139.418 225.641L142 213.831C144.542 213.426 147.037 212.806 149.469 211.978L157.788 221.091L167.387 215.724L163.682 204.052C165.627 202.437 167.439 200.637 169.112 198.668L180.755 202.524L186.243 192.995L177.241 184.559C178.109 182.116 178.769 179.627 179.203 177.108L191.031 174.682L190.944 163.549L179.059 160.626C178.578 158.073 177.889 155.554 176.992 153.099L185.861 145.035L180.216 135.274L168.649 138.643C166.982 136.651 165.123 134.782 163.109 133.05L166.629 121.512L156.943 115.746L148.768 124.511C146.296 123.573 143.789 122.844 141.265 122.334L138.498 110.431L127.364 110.199L124.782 122.01C122.241 122.415 119.74 123.035 117.314 123.863L108.995 114.75L99.3956 120.117L103.101 131.788C101.156 133.404 99.3435 135.204 97.6704 137.173L86.0278 133.317ZM147.523 143.39C161.297 151.594 166.131 169.223 158.327 182.77C150.522 196.318 133.032 200.648 119.259 192.45C105.486 184.247 100.652 166.618 108.456 153.07C116.26 139.523 133.75 135.193 147.523 143.39Z" fill="#13F08E"></path>
    <path d="M277.381 430.415L52.4722 389.709L128.019 336.012L352.696 364.345C353.449 364.438 353.732 365.382 353.154 365.88L277.375 430.42L277.381 430.415Z" fill="#165086"></path>
    <path d="M276.808 420.023L51.8989 379.317L127.446 325.62L354.091 354.202L276.808 420.023Z" fill="#ECFAFF"></path>
    <path d="M277.381 430.415L276.808 420.023L354.091 354.197L354.479 361.184C354.595 363.327 353.709 365.405 352.071 366.8L277.381 430.409V430.415Z" fill="#165086"></path>
    <path d="M248.127 407.581C247.872 407.581 247.617 407.471 247.449 407.251C247.148 406.875 247.212 406.331 247.588 406.029L304.904 360.414C305.28 360.113 305.825 360.177 306.126 360.553C306.427 360.93 306.363 361.474 305.987 361.775L248.671 407.39C248.509 407.517 248.318 407.581 248.133 407.581H248.127Z" fill="#165086"></path>
    <path d="M227.481 403.152C227.227 403.152 226.972 403.036 226.798 402.822C226.503 402.446 226.567 401.902 226.943 401.601L282.91 357.525C283.286 357.23 283.83 357.294 284.131 357.67C284.427 358.046 284.363 358.591 283.987 358.892L228.02 402.967C227.864 403.094 227.673 403.152 227.481 403.152Z" fill="#165086"></path>
    <path d="M208.567 400.072C208.312 400.072 208.063 399.962 207.89 399.748C207.589 399.372 207.647 398.827 208.023 398.526L262.635 354.642C263.011 354.341 263.555 354.399 263.856 354.775C264.157 355.152 264.1 355.696 263.723 355.997L209.111 399.881C208.949 400.008 208.758 400.072 208.567 400.072Z" fill="#165086"></path>
    <path d="M170.745 392.378C170.49 392.378 170.235 392.262 170.061 392.048C169.766 391.672 169.83 391.127 170.206 390.826L222.699 349.443C223.076 349.148 223.62 349.212 223.921 349.588C224.216 349.964 224.152 350.509 223.776 350.81L171.283 392.193C171.127 392.32 170.936 392.378 170.745 392.378Z" fill="#165086"></path>
    <path d="M189.271 395.84C189.016 395.84 188.761 395.73 188.588 395.51C188.292 395.134 188.35 394.589 188.727 394.288L242.378 351.753C242.754 351.452 243.298 351.516 243.599 351.892C243.894 352.268 243.836 352.813 243.46 353.114L189.809 395.649C189.647 395.776 189.462 395.834 189.271 395.834V395.84Z" fill="#165086"></path>
    <path d="M149.127 389.68C148.866 389.68 148.611 389.564 148.444 389.344C148.148 388.968 148.218 388.418 148.594 388.123L201.857 346.549C202.233 346.253 202.783 346.323 203.079 346.699C203.374 347.075 203.304 347.625 202.928 347.921L149.665 389.495C149.509 389.616 149.318 389.68 149.133 389.68H149.127Z" fill="#165086"></path>
    <path d="M269.548 411.622C269.496 411.622 269.438 411.622 269.386 411.605L67.9123 373.493C67.4434 373.406 67.1308 372.948 67.2176 372.48C67.3045 372.011 67.7618 371.698 68.2308 371.785L269.305 409.822L324.571 363.888C324.941 363.581 325.485 363.633 325.792 363.998C326.099 364.369 326.047 364.913 325.682 365.22L270.103 411.414C269.947 411.547 269.75 411.616 269.548 411.616V411.622Z" fill="#165086"></path>
    <path d="M282.672 400.072C282.62 400.072 282.568 400.072 282.516 400.061L98.0234 366.569C97.5545 366.482 97.236 366.03 97.3229 365.561C97.4097 365.086 97.8613 364.774 98.3302 364.861L282.823 398.353C283.298 398.44 283.61 398.891 283.523 399.36C283.448 399.777 283.083 400.072 282.672 400.072Z" fill="#165086"></path>
    <path d="M294.251 390.259C294.199 390.259 294.147 390.259 294.095 390.247L109.602 356.755C109.133 356.668 108.815 356.217 108.901 355.748C108.988 355.273 109.44 354.961 109.909 355.047L294.402 388.539C294.876 388.626 295.189 389.078 295.102 389.547C295.027 389.964 294.662 390.259 294.251 390.259Z" fill="#165086"></path>
    <path d="M312.39 375.438C312.343 375.438 312.297 375.438 312.245 375.426L125.054 344.244C124.58 344.163 124.261 343.717 124.342 343.243C124.423 342.768 124.869 342.45 125.344 342.531L312.534 373.713C313.009 373.794 313.328 374.24 313.247 374.714C313.177 375.137 312.806 375.438 312.39 375.438Z" fill="#165086"></path>
    <path d="M325.127 363.888C325.086 363.888 325.051 363.888 325.011 363.882L120.452 336.168C119.977 336.104 119.641 335.664 119.705 335.19C119.769 334.715 120.209 334.379 120.683 334.449L325.242 362.163C325.717 362.226 326.053 362.666 325.989 363.141C325.931 363.575 325.555 363.894 325.132 363.894L325.127 363.888Z" fill="#165086"></path>
    <path d="M332.45 420.237C341.019 386.889 369.954 364.195 400.54 391.382C411.349 412.23 379.467 431.005 343.167 433.13C336.161 433.541 330.708 427.016 332.45 420.237Z" fill="#165086"></path>
    <path d="M364.339 394.103C360.9 392.343 355.811 390.259 346.831 391.625C336.931 393.131 334.72 400.419 319.204 403.679C292.52 409.289 305.657 424.868 305.657 424.868L326.412 415.495C327.755 414.887 329.243 414.65 330.713 414.812C335.241 415.31 346.073 416.115 355.938 413.892C363.32 412.23 373.046 418.338 378.285 413.735C381.331 411.061 371.674 397.843 364.339 394.092V394.103Z" fill="white"></path>
    <path d="M305.657 425.742C305.408 425.742 305.159 425.632 304.991 425.436C304.782 425.192 299.977 419.397 302.073 413.307C303.775 408.362 309.478 404.837 319.019 402.834C327.251 401.103 331.657 398.225 335.542 395.684C338.842 393.524 341.962 391.486 346.698 390.768C355.544 389.425 360.778 391.307 364.732 393.333C370.933 396.506 379.038 406.4 379.686 411.581C379.883 413.139 379.345 413.972 378.859 414.401C375.535 417.325 370.672 416.364 365.971 415.437C362.596 414.771 359.105 414.082 356.135 414.754C346.061 417.024 334.94 416.161 330.627 415.686C329.318 415.541 327.987 415.756 326.777 416.3L306.021 425.673C305.906 425.725 305.784 425.748 305.662 425.748L305.657 425.742ZM352.331 392.054C350.716 392.054 348.933 392.187 346.964 392.482C342.605 393.142 339.774 394.995 336.497 397.137C332.479 399.759 327.929 402.735 319.378 404.53C310.473 406.4 305.205 409.544 303.717 413.868C302.264 418.089 304.892 422.35 305.929 423.797L326.053 414.714C327.541 414.042 329.185 413.781 330.806 413.961C335.032 414.424 345.928 415.269 355.747 413.058C359.076 412.305 362.752 413.035 366.301 413.735C370.788 414.621 375.026 415.455 377.706 413.098C378.013 412.826 378.013 412.241 377.961 411.801C377.44 407.598 369.96 397.965 363.939 394.885C361.108 393.437 357.571 392.059 352.325 392.059L352.331 392.054Z" fill="#07345E"></path>
    <path d="M178.346 480.852C167.59 481.165 126.201 478.126 126.201 478.126C102.122 475.688 58.4814 460.659 40.0999 444.784C30.1189 436.164 22.4015 428.099 19.0726 418.309C13.4163 401.682 13.9373 396.94 12.351 376.764C11.2742 363.025 16.23 343.955 24.7752 333.198C37.3325 317.393 60.5367 306.161 105.654 311.933C105.654 311.933 145.283 317.231 158.442 333.401C162.223 338.044 178.399 349.889 191.396 369.046C203.687 387.167 214.884 412.548 229.12 411.796C279.112 409.156 309.709 395.058 316.755 397.577C323.448 399.974 328.276 408.681 327.743 416.925C327.211 425.169 252.949 475.318 221.107 476.221C183.134 477.298 158.188 451.517 158.188 451.517L178.352 480.852H178.346Z" fill="#165086"></path>
    <path d="M193.526 370.708C193.254 370.708 192.982 370.581 192.814 370.337C181.305 353.936 169.002 340.852 156.254 331.444C149.144 326.199 140.032 321.689 130.595 318.736C130.137 318.591 129.883 318.105 130.027 317.648C130.172 317.19 130.658 316.935 131.116 317.08C140.732 320.085 150.024 324.688 157.284 330.049C170.183 339.566 182.619 352.79 194.238 369.342C194.516 369.735 194.418 370.274 194.024 370.552C193.874 370.656 193.7 370.708 193.526 370.708Z" fill="#ECFAFF"></path>
    <path d="M294.193 402.058C293.782 402.058 293.423 401.768 293.342 401.352C293.25 400.883 293.562 400.425 294.031 400.333C302.947 398.619 310.775 397.664 317.948 397.403C318.428 397.386 318.828 397.762 318.845 398.243C318.862 398.723 318.486 399.123 318.006 399.14C310.919 399.395 303.179 400.344 294.35 402.035C294.292 402.046 294.24 402.052 294.188 402.052L294.193 402.058Z" fill="#ECFAFF"></path>
    <path d="M208.267 477.141C208.22 477.141 208.168 477.141 208.122 477.13C199.328 475.648 191.871 473.627 183.198 470.368C159.01 461.278 123.793 416.236 107.321 381.494C107.113 381.059 107.298 380.544 107.733 380.336C108.167 380.127 108.682 380.313 108.89 380.747C125.223 415.188 160.011 459.79 183.812 468.735C192.374 471.954 199.733 473.951 208.411 475.41C208.886 475.491 209.204 475.937 209.123 476.412C209.054 476.834 208.683 477.135 208.267 477.135V477.141Z" fill="#ECFAFF"></path>
    <path d="M9.49689 372.04C23.0384 381.065 51.0305 394.323 103.581 391.087C107.171 390.867 110.494 393.015 111.756 396.407L114.882 409.034C120.186 430.432 130.155 450.365 144.061 467.386L153.817 479.318C154.094 479.66 153.834 480.175 153.394 480.14L117.685 477.495C62.4241 470.125 19.4953 442.173 5.72216 391.255L1.86059 378.211C1.00954 375.062 6.78742 370.239 9.48531 372.04H9.49689Z" fill="white"></path>
    <path d="M153.591 480.071C153.336 480.071 153.087 479.961 152.913 479.747L143.61 468.203C129.57 451.025 119.317 430.525 113.962 408.918L110.928 396.674C109.782 393.652 106.852 391.764 103.633 391.961C98.7761 392.262 94.0866 392.401 89.5882 392.401C47.8983 392.401 21.6026 380.44 9.04526 372.786C7.27948 371.71 5.49632 372.196 4.41369 373.006C3.31949 373.829 2.34686 375.426 2.89686 377.453L6.56737 391.035C18.7542 436.1 55.552 466.089 110.187 475.48C110.662 475.561 110.974 476.012 110.893 476.481C110.812 476.956 110.367 477.275 109.892 477.188C83.1793 472.597 60.6525 463.229 42.9368 449.358C24.0805 434.589 11.28 415.119 4.88843 391.481L1.21791 377.899C0.569492 375.502 1.3916 373.093 3.37159 371.605C5.33422 370.135 7.85263 370.013 9.94842 371.293C23.6868 379.664 54.1104 393.258 103.523 390.218C107.53 389.97 111.16 392.337 112.567 396.101C112.578 396.13 112.59 396.164 112.596 396.193L115.641 408.49C120.932 429.847 131.07 450.11 144.953 467.097L154.262 478.647C154.563 479.023 154.505 479.567 154.129 479.868C153.967 479.996 153.776 480.059 153.585 480.059L153.591 480.071Z" fill="#07345E"></path>
    <path d="M111.895 232.537C123.381 225.804 124.933 205.54 116.417 201.135C108.728 197.157 99.2452 201.488 87.3594 207.156C81.7031 209.848 73.4821 209.72 64.7689 211.428C24.5727 219.296 26.4543 268.177 65.9037 299.822C94.3183 322.609 111.021 243.218 111.021 243.218L111.901 232.543L111.895 232.537Z" fill="#07345E"></path>
    <path d="M102.968 237.307C103.691 230.725 110.679 230.377 111.895 232.531C114.854 237.771 116.26 241.412 116.735 243.635C117.372 246.628 114.616 249.616 116.098 252.823C117.58 256.025 119.914 259.661 120.122 265.427C120.33 271.06 125.998 296.893 106.094 296.076C105.313 296.041 104.664 296.661 104.67 297.448C104.716 301.379 104.925 312.194 105.793 318.047C106.262 321.237 104.294 324.271 101.214 325.145C93.2473 327.415 78.4205 330.605 67.3221 326.969C64.4389 326.025 62.9221 322.835 63.9526 319.958C65.2668 316.287 67.0963 305.959 65.8979 299.816C65.8979 299.816 72.5442 299.156 79.9431 295.735C91.3194 290.472 96.912 277.66 93.7741 265.438C93.0967 262.81 91.6378 259.076 93.1604 255.122C95.5515 248.904 98.672 250.282 100.739 252.308C101.573 253.124 102.968 252.528 102.968 251.358V237.313V237.307Z" fill="white"></path>
    <path d="M79.0339 329.481C74.8945 329.481 70.7782 329.012 67.0613 327.791C65.4635 327.264 64.1666 326.135 63.4198 324.612C62.6556 323.055 62.5571 321.295 63.1419 319.662C64.404 316.125 66.2219 305.976 65.0524 299.978C65.0061 299.741 65.064 299.492 65.2087 299.295C65.3535 299.098 65.5735 298.971 65.8166 298.948C65.8803 298.942 72.4166 298.259 79.5839 294.941C90.3987 289.939 96.0144 277.619 92.9344 265.652C92.8476 265.305 92.7434 264.935 92.6334 264.552C91.9155 261.999 90.9313 258.497 92.3497 254.809C93.4786 251.874 94.9376 250.189 96.6744 249.812C98.1739 249.488 99.7429 250.119 101.347 251.688C101.526 251.868 101.723 251.821 101.821 251.781C101.902 251.746 102.099 251.636 102.099 251.358V237.313C102.099 237.278 102.099 237.249 102.099 237.22C102.481 233.735 104.583 231.275 107.721 230.626C109.88 230.186 111.906 230.794 112.648 232.114C115.988 238.031 117.175 241.551 117.58 243.467C117.904 244.996 117.488 246.455 117.082 247.861C116.625 249.459 116.191 250.97 116.88 252.47C117.123 252.997 117.389 253.535 117.667 254.097C119.062 256.91 120.799 260.413 120.984 265.409C121.008 266.087 121.123 267.129 121.256 268.333C121.957 274.748 123.26 286.697 117.389 292.979C114.738 295.816 110.922 297.153 106.059 296.95C105.914 296.944 105.787 296.997 105.689 297.089C105.631 297.141 105.538 297.263 105.544 297.442C105.596 301.686 105.81 312.182 106.655 317.925C107.188 321.527 104.953 324.994 101.457 325.99C96.0897 327.519 87.5155 329.493 79.0282 329.493L79.0339 329.481ZM66.9108 300.557C67.8313 306.983 66.0713 316.629 64.7803 320.247C64.3577 321.434 64.4271 322.713 64.9829 323.848C65.5213 324.948 66.4535 325.764 67.6056 326.141C78.5071 329.713 93.2008 326.529 100.993 324.305C103.657 323.547 105.353 320.907 104.948 318.169C104.085 312.321 103.865 301.732 103.813 297.454C103.807 296.834 104.044 296.261 104.484 295.833C104.924 295.404 105.527 295.179 106.14 295.202C110.477 295.381 113.84 294.229 116.133 291.78C121.465 286.078 120.214 274.649 119.543 268.507C119.404 267.216 119.288 266.197 119.265 265.456C119.097 260.836 117.516 257.657 116.127 254.855C115.843 254.282 115.571 253.732 115.316 253.188C114.35 251.104 114.923 249.124 115.421 247.369C115.78 246.113 116.121 244.92 115.89 243.815C115.577 242.344 114.546 238.986 111.142 232.959C110.835 232.415 109.573 232.016 108.074 232.323C107.194 232.502 104.293 233.399 103.836 237.354V251.352C103.836 252.256 103.327 253.026 102.499 253.373C101.677 253.72 100.773 253.547 100.137 252.921C99.3376 252.14 98.1565 251.26 97.045 251.503C95.9276 251.746 94.8681 253.101 93.9708 255.428C92.755 258.584 93.6118 261.629 94.3065 264.078C94.4165 264.477 94.5265 264.859 94.6192 265.218C97.9076 277.996 91.8923 291.161 80.3134 296.516C74.3908 299.254 69.0066 300.25 66.9108 300.557Z" fill="#07345E"></path>
    <path d="M120.18 263.122C119.884 263.122 119.601 262.972 119.439 262.706C119.19 262.295 119.323 261.762 119.734 261.513C125.813 257.831 122.067 247.479 120.834 244.509L102.979 253.234C102.551 253.443 102.03 253.269 101.815 252.835C101.607 252.406 101.781 251.885 102.215 251.671L120.88 242.547C121.089 242.443 121.326 242.431 121.546 242.506C121.766 242.581 121.945 242.744 122.044 242.952C122.333 243.56 129.066 257.889 120.631 262.995C120.492 263.082 120.336 263.122 120.185 263.122H120.18Z" fill="#07345E"></path>
    <path d="M120.695 270.591C120.475 270.591 120.249 270.504 120.081 270.336C119.74 269.995 119.74 269.445 120.081 269.109L122.629 266.561C123.329 265.861 123.422 264.767 122.843 263.956L121.095 261.49C120.817 261.096 120.909 260.558 121.297 260.28C121.691 260.002 122.229 260.095 122.507 260.483L124.256 262.949C125.321 264.448 125.153 266.486 123.85 267.789L121.303 270.336C121.135 270.504 120.909 270.591 120.689 270.591H120.695Z" fill="#07345E"></path>
    <path d="M100.206 272.826C99.7776 272.826 99.326 272.779 98.8513 272.658C96.576 272.09 94.6307 270.151 93.0676 266.886C92.8592 266.451 93.0444 265.936 93.4786 265.728C93.9128 265.519 94.4281 265.705 94.6365 266.139C95.9623 268.912 97.5255 270.539 99.2739 270.973C101.092 271.425 102.557 270.382 102.574 270.377C102.956 270.093 103.5 270.168 103.79 270.556C104.073 270.944 103.992 271.482 103.61 271.772C103.541 271.824 102.157 272.826 100.212 272.826H100.206Z" fill="#07345E"></path>
    <path d="M91.4237 47.0596C88.3147 47.0596 85.7558 44.5586 85.7037 41.438C85.6747 39.9096 86.2479 38.4623 87.3074 37.3623C88.3668 36.2623 89.7968 35.6428 91.3252 35.6138C92.8479 35.5849 94.301 36.158 95.401 37.2175C96.501 38.277 97.1205 39.707 97.1494 41.2354C97.1784 42.7638 96.6052 44.2112 95.5458 45.3112C94.4863 46.4112 93.0563 47.0307 91.5279 47.0596C91.4931 47.0596 91.4584 47.0596 91.4237 47.0596ZM91.4237 37.3507C91.4237 37.3507 91.3773 37.3507 91.3542 37.3507C90.2889 37.368 89.2931 37.8023 88.5579 38.5665C87.8168 39.3307 87.4232 40.3438 87.4405 41.4033C87.481 43.6033 89.2989 45.3633 91.4989 45.317C92.5642 45.2996 93.56 44.8654 94.2952 44.1012C95.0305 43.337 95.43 42.3238 95.4126 41.2643C95.3952 40.1991 94.961 39.2033 94.1968 38.468C93.45 37.7444 92.4658 37.3507 91.4295 37.3507H91.4237Z" fill="#07345E"></path>
    <path d="M123.41 21.1922C123.26 21.1922 123.115 21.1517 122.976 21.0764C122.559 20.8332 122.42 20.3064 122.664 19.8896L124.07 17.4638C124.314 17.0469 124.84 16.908 125.257 17.1511C125.674 17.3943 125.813 17.9211 125.57 18.338L124.163 20.7638C124.001 21.0417 123.711 21.198 123.41 21.198V21.1922Z" fill="#07345E"></path>
    <path d="M116.678 32.8001C116.527 32.8001 116.382 32.7596 116.243 32.6843C115.826 32.4412 115.688 31.9143 115.931 31.4975L117.338 29.0717C117.581 28.6548 118.108 28.5159 118.524 28.7591C118.941 29.0022 119.08 29.5291 118.837 29.9459L117.43 32.3717C117.268 32.6496 116.979 32.8059 116.678 32.8059V32.8001Z" fill="#07345E"></path>
    <path d="M116.104 23.1606C115.96 23.1606 115.815 23.1259 115.676 23.0506L113.227 21.667C112.81 21.4296 112.66 20.9028 112.897 20.4859C113.134 20.0691 113.661 19.9185 114.078 20.1559L116.527 21.5396C116.944 21.777 117.094 22.3038 116.857 22.7206C116.695 23.0043 116.405 23.1606 116.098 23.1606H116.104Z" fill="#07345E"></path>
    <path d="M127.84 29.7896C127.695 29.7896 127.55 29.7548 127.411 29.6796L124.962 28.2959C124.545 28.0585 124.395 27.5317 124.632 27.1148C124.87 26.698 125.396 26.5475 125.813 26.7848L128.262 28.1685C128.679 28.4059 128.83 28.9327 128.592 29.3496C128.43 29.6332 128.141 29.7896 127.834 29.7896H127.84Z" fill="#07345E"></path>
    <path d="M380.121 446.272C379.802 446.272 379.496 446.092 379.345 445.791C379.131 445.363 379.304 444.842 379.739 444.628C386.68 441.183 393.448 437.188 399.857 432.759C423.739 416.248 442.826 393.449 455.06 366.823C455.262 366.389 455.777 366.198 456.212 366.395C456.646 366.597 456.837 367.112 456.64 367.547C444.28 394.45 424.989 417.492 400.847 434.183C394.369 438.664 387.526 442.7 380.509 446.179C380.387 446.243 380.254 446.272 380.121 446.272Z" fill="#07345E"></path>
    <path d="M375.582 461.058C375.263 461.058 374.956 460.879 374.806 460.578C374.592 460.149 374.771 459.628 375.2 459.414C383.837 455.13 392.267 450.157 400.245 444.639C429.974 424.081 453.734 395.701 468.96 362.562C469.163 362.128 469.678 361.937 470.112 362.134C470.546 362.336 470.737 362.852 470.54 363.286C455.187 396.708 431.218 425.331 401.235 446.069C393.182 451.633 384.683 456.652 375.97 460.971C375.848 461.035 375.715 461.064 375.582 461.064V461.058Z" fill="#07345E"></path>
    <path d="M470.732 385.17C470.442 385.17 470.147 385.141 469.852 385.089C468.578 384.857 467.472 384.145 466.737 383.08C465.22 380.886 465.77 377.864 467.964 376.347C470.159 374.83 473.181 375.38 474.697 377.574C475.433 378.639 475.711 379.925 475.479 381.193C475.247 382.466 474.535 383.572 473.47 384.307C472.654 384.875 471.704 385.17 470.726 385.17H470.732ZM470.714 377.227C470.106 377.227 469.493 377.406 468.954 377.777C467.547 378.749 467.194 380.689 468.167 382.096C468.636 382.779 469.348 383.236 470.164 383.381C470.981 383.531 471.803 383.352 472.486 382.883C473.169 382.414 473.626 381.702 473.771 380.886C473.922 380.069 473.742 379.247 473.273 378.564C472.671 377.696 471.704 377.227 470.714 377.227Z" fill="#07345E"></path>
    <path d="M463.634 398.717C463.634 398.717 463.611 398.717 463.593 398.717L455.685 398.364C455.366 398.353 455.077 398.161 454.938 397.866C454.799 397.577 454.834 397.235 455.025 396.975L459.83 390.531C460.01 390.288 460.299 390.16 460.6 390.184C460.901 390.207 461.162 390.386 461.301 390.653C462.997 393.987 464.421 397.484 464.433 397.519C464.543 397.791 464.508 398.104 464.334 398.347C464.172 398.578 463.906 398.711 463.628 398.711L463.634 398.717ZM457.399 396.703L462.302 396.923C461.862 395.886 461.173 394.335 460.386 392.702L457.404 396.703H457.399Z" fill="#07345E"></path>
    <path d="M434.449 428.359C434.304 428.359 434.16 428.325 434.027 428.249C433.61 428.018 433.459 427.485 433.691 427.068C433.841 426.796 433.905 426.067 433.957 425.424C434.073 424.035 434.223 422.304 435.335 421.279C436.261 420.428 437.795 420.341 439.278 420.26C440.43 420.196 441.732 420.127 442.178 419.669C442.919 418.911 443.081 417.435 443.243 415.999C443.417 414.447 443.597 412.849 444.523 411.801C445.577 410.615 447.209 410.076 448.651 409.607C449.687 409.271 450.752 408.918 451.158 408.426C452.761 406.475 451.841 403.656 451.835 403.627C451.684 403.169 451.928 402.677 452.379 402.527C452.831 402.376 453.329 402.619 453.479 403.071C453.531 403.221 454.706 406.834 452.501 409.526C451.777 410.406 450.521 410.817 449.195 411.251C447.904 411.674 446.567 412.108 445.831 412.948C445.27 413.585 445.119 414.91 444.974 416.19C444.783 417.915 444.581 419.698 443.423 420.879C442.502 421.817 440.916 421.904 439.376 421.991C438.253 422.055 436.985 422.124 436.516 422.552C435.897 423.12 435.787 424.422 435.688 425.569C435.607 426.507 435.538 427.317 435.208 427.914C435.051 428.197 434.756 428.359 434.449 428.359Z" fill="#07345E"></path>
    <path d="M402.393 343.335C401.796 343.335 401.2 343.225 400.633 343C399.429 342.531 398.479 341.616 397.958 340.435C396.887 337.992 398.004 335.132 400.448 334.061C401.629 333.54 402.949 333.516 404.153 333.985C405.357 334.454 406.306 335.369 406.827 336.55C407.899 338.993 406.781 341.853 404.338 342.924C403.713 343.196 403.059 343.335 402.399 343.335H402.393ZM402.393 335.386C401.97 335.386 401.548 335.473 401.148 335.647C399.579 336.336 398.867 338.165 399.55 339.734C399.88 340.493 400.494 341.078 401.264 341.379C402.034 341.68 402.879 341.662 403.638 341.332C404.396 341.002 404.981 340.389 405.282 339.619C405.583 338.849 405.565 338.003 405.235 337.245C404.905 336.486 404.292 335.902 403.522 335.601C403.157 335.456 402.775 335.386 402.393 335.386Z" fill="#07345E"></path>
    <path d="M422.442 361.323C422.198 361.323 421.967 361.225 421.799 361.039L416.386 355.094C416.183 354.874 416.108 354.561 416.195 354.272C416.276 353.982 416.502 353.756 416.791 353.675C420.386 352.645 424.092 351.915 424.132 351.909C424.422 351.852 424.723 351.95 424.925 352.158C425.128 352.373 425.209 352.674 425.139 352.963L423.287 360.657C423.212 360.97 422.968 361.213 422.656 361.294C422.586 361.312 422.511 361.323 422.442 361.323ZM418.626 354.966L421.984 358.654L423.136 353.884C422.036 354.121 420.381 354.497 418.632 354.961L418.626 354.966Z" fill="#07345E"></path>
    <path d="M435.775 320.6C435.775 320.6 429.985 321.729 424.294 323.362L432.84 332.758L435.769 320.6H435.775Z" fill="#13F08E"></path>
    <path d="M456.084 290.373C455.604 290.373 455.216 289.985 455.216 289.505V285.198C455.216 284.717 455.604 284.329 456.084 284.329C456.565 284.329 456.953 284.717 456.953 285.198V289.505C456.953 289.985 456.565 290.373 456.084 290.373Z" fill="#07345E"></path>
    <path d="M456.084 300.406C455.604 300.406 455.216 300.019 455.216 299.538V295.231C455.216 294.75 455.604 294.362 456.084 294.362C456.565 294.362 456.953 294.75 456.953 295.231V299.538C456.953 300.019 456.565 300.406 456.084 300.406Z" fill="#07345E"></path>
    <path d="M453.114 293.239H448.645C448.164 293.239 447.776 292.851 447.776 292.371C447.776 291.89 448.164 291.502 448.645 291.502H453.114C453.595 291.502 453.983 291.89 453.983 292.371C453.983 292.851 453.595 293.239 453.114 293.239Z" fill="#07345E"></path>
    <path d="M463.529 293.239H459.06C458.579 293.239 458.191 292.851 458.191 292.371C458.191 291.89 458.579 291.502 459.06 291.502H463.529C464.01 291.502 464.398 291.89 464.398 292.371C464.398 292.851 464.01 293.239 463.529 293.239Z" fill="#07345E"></path>
    <path d="M456.333 45.8438C455.963 45.8438 455.592 45.8033 455.227 45.7165C452.564 45.1028 450.868 42.4049 451.447 39.7012C451.586 39.0412 451.852 38.4217 452.234 37.8775C452.506 37.4839 453.051 37.3854 453.444 37.6575C453.838 37.9296 453.936 38.4738 453.664 38.8675C453.415 39.2265 453.242 39.626 453.149 40.0659C452.767 41.8491 453.878 43.6265 455.621 44.0259C456.449 44.217 457.3 44.0723 458.018 43.6149C458.753 43.1459 459.263 42.4107 459.448 41.5423C459.83 39.7591 458.718 37.9817 456.976 37.5823C456.507 37.4723 456.217 37.0091 456.322 36.5402C456.432 36.0712 456.895 35.7818 457.364 35.886C460.027 36.4996 461.723 39.1975 461.144 41.9012C460.86 43.227 460.085 44.3559 458.95 45.0738C458.157 45.5775 457.259 45.838 456.339 45.838L456.333 45.8438Z" fill="#07345E"></path>
    <path d="M445.75 9.62496C443.544 9.11549 441.362 10.5281 440.881 12.7744C440.401 15.0207 441.802 17.2555 444.007 17.7649C446.213 18.2744 448.396 16.8618 448.876 14.6155C449.357 12.3692 447.956 10.1344 445.75 9.62496Z" fill="#13F08E"></path>
    <path d="M423.959 27.3987C423.959 27.3987 421.099 30.5192 418.505 33.8945L427.455 35.6776L423.964 27.4045L423.959 27.3987Z" fill="#13F08E"></path>
    <path d="M339.409 208.568L257.419 205.737C256.887 205.801 256.707 206.316 256.707 206.791L256.174 276.745C256.122 283.443 209.355 306.213 208.903 305.386L208.788 312.796C208.776 314.174 209.975 315.257 211.515 315.083L212.539 314.967C212.539 314.967 212.551 314.967 212.562 314.967L281.289 319.836C284.485 319.465 287.64 318.389 290.541 316.843L328.502 296.522C335.334 292.863 339.682 286.199 339.728 279.466L340.261 209.443C340.261 208.968 339.936 208.51 339.404 208.574L339.409 208.568Z" fill="#165086"></path>
    <path d="M248.434 202.704L247.902 272.67C247.849 279.565 243.368 286.362 236.386 290.142L210.78 303.996C209.106 304.899 209.656 307.076 211.509 306.862L281.544 311.58C284.699 311.216 287.82 310.237 290.68 308.703L319.054 293.517C326.094 289.748 330.616 282.928 330.668 275.993L331.2 205.958C331.2 205.674 330.946 205.471 330.621 205.506L249.025 202.119C248.706 202.154 248.44 202.42 248.44 202.704H248.434Z" fill="#ECFAFF"></path>
    <path d="M281.561 312.455H281.48L211.515 307.736C210.339 307.84 209.338 307.221 209.008 306.185C208.655 305.067 209.21 303.851 210.357 303.232L235.963 289.378C242.633 285.771 246.975 279.211 247.027 272.664L247.56 202.698C247.56 201.974 248.162 201.343 248.914 201.256H248.984L330.598 204.637C330.98 204.614 331.356 204.742 331.628 204.985C331.906 205.234 332.063 205.593 332.063 205.963L331.53 275.998C331.478 283.206 326.736 290.385 319.459 294.281L291.085 309.467C288.144 311.042 284.879 312.067 281.642 312.443L281.561 312.455ZM211.48 305.988H211.561L281.521 310.706C284.52 310.353 287.542 309.392 290.269 307.933L318.643 292.747C325.37 289.146 329.747 282.569 329.799 275.981L330.326 206.357L249.302 202.993L248.776 272.669C248.723 279.837 244.022 286.992 236.803 290.9L211.196 304.755C210.721 305.009 210.594 305.391 210.675 305.658C210.756 305.918 211.028 306.04 211.41 305.993L211.491 305.982L211.48 305.988Z" fill="#07345E"></path>
    <path d="M158.934 28.9619L447.539 53.4224C453.907 53.9608 459.072 59.565 459.072 65.9334V263.806C459.072 270.174 452.483 277.312 446.451 279.732L158.94 249.905C152.572 249.367 147.408 243.762 147.408 237.394L140.906 40.7898C139.777 37.9645 152.572 28.4293 158.94 28.9677L158.934 28.9619Z" fill="#165086"></path>
    <path d="M150.517 36.4248L439.122 60.8852C445.49 61.4237 450.654 67.0279 450.654 73.3963V271.268C450.654 277.637 445.49 282.367 439.122 281.823L150.517 257.362C144.149 256.824 138.984 251.22 138.984 244.851V46.9848C138.984 40.6163 144.149 35.8864 150.517 36.4306V36.4248Z" fill="#ECFAFF"></path>
    <path d="M440.117 282.737C439.764 282.737 439.405 282.72 439.046 282.691L150.441 258.23C143.645 257.651 138.11 251.654 138.11 244.851V46.9845C138.11 43.6671 139.407 40.6508 141.751 38.4914C144.114 36.3203 147.251 35.284 150.58 35.5677L439.185 60.0282C445.982 60.6071 451.516 66.605 451.516 73.4076V271.28C451.516 274.597 450.22 277.613 447.875 279.773C445.768 281.707 443.046 282.743 440.111 282.743L440.117 282.737ZM149.527 37.2524C147.031 37.2524 144.716 38.1266 142.938 39.765C140.952 41.5945 139.858 44.1535 139.858 46.9787V244.851C139.858 250.773 144.675 255.996 150.598 256.499L439.202 280.96C442.045 281.203 444.714 280.323 446.711 278.488C448.697 276.664 449.791 274.099 449.791 271.274V73.4018C449.791 67.485 444.974 62.2571 439.052 61.7534L150.447 37.2929C150.14 37.264 149.834 37.2524 149.527 37.2524Z" fill="#07345E"></path>
    <path d="M160.891 45.6587L430.449 68.5039C436.4 69.0076 441.223 74.2528 441.223 80.2217V265.623C441.223 271.592 436.4 276.021 430.449 275.518L160.891 252.672C154.94 252.169 150.117 246.923 150.117 240.955V55.5529C150.117 49.5839 154.94 45.155 160.891 45.6587Z" fill="#ECFAFF"></path>
    <path d="M441.263 86.8217L441.57 80.1523C441.57 74.2354 436.539 69.1002 430.593 68.5965L161.036 45.7513C155.084 45.2476 150.216 49.5434 150.216 55.4602L149.909 63.6755L441.263 86.8217Z" fill="#165086"></path>
    <path d="M167.15 57.174C167.15 59.0961 165.592 60.5203 163.67 60.3582C161.748 60.1961 160.191 58.5056 160.191 56.5835C160.191 54.6614 161.748 53.2372 163.67 53.3993C165.592 53.5614 167.15 55.2519 167.15 57.174Z" fill="#ECFAFF"></path>
    <path d="M178.289 57.8862C178.289 59.8083 176.732 61.2325 174.81 61.0704C172.887 60.9083 171.33 59.2178 171.33 57.2957C171.33 55.3736 172.887 53.9493 174.81 54.1115C176.732 54.2736 178.289 55.9641 178.289 57.8862Z" fill="#ECFAFF"></path>
    <path d="M190.348 59.374C190.348 61.2961 188.791 62.7203 186.869 62.5582C184.947 62.3961 183.389 60.7055 183.389 58.7834C183.389 56.8613 184.947 55.4371 186.869 55.5992C188.791 55.7613 190.348 57.4519 190.348 59.374Z" fill="#ECFAFF"></path>
    <path d="M422.789 241.452L169.795 220.008C166.061 219.69 163.033 216.407 163.033 212.673V97.2197C163.033 93.4855 166.061 90.7123 169.795 91.0308L422.789 112.475C426.523 112.793 429.551 116.076 429.551 119.81V235.264C429.551 238.998 426.523 241.771 422.789 241.452Z" fill="#165086"></path>
    <path d="M214.247 113.592L174.161 110.194V100.022L214.247 103.42V113.592Z" fill="#ECFAFF"></path>
    <path d="M381.261 128.199L238.835 116.128V105.956L381.261 118.027V128.199Z" fill="#ECFAFF"></path>
    <path d="M213.778 164.186L173.698 160.794V150.622L213.778 154.02V164.186Z" fill="#ECFAFF"></path>
    <path d="M380.799 178.799L238.372 166.728V156.556L380.799 168.627V178.799Z" fill="#ECFAFF"></path>
    <path d="M212.852 213.837L172.771 210.444V200.272L212.852 203.665V213.837Z" fill="#ECFAFF"></path>
    <path d="M379.872 228.449L237.44 216.373V206.206L379.872 218.277V228.449Z" fill="#ECFAFF"></path>
    <path d="M275.974 136.455L238.661 133.294V123.122L275.974 126.283V136.455Z" fill="#ECFAFF"></path>
    <path d="M413.741 148.584L281.145 137.346V127.174L413.741 138.412V148.584Z" fill="#ECFAFF"></path>
    <path d="M275.511 153.146L238.198 149.979V139.807L275.511 142.974V153.146Z" fill="#ECFAFF"></path>
    <path d="M413.277 165.275L280.681 154.032V143.865L413.277 155.103V165.275Z" fill="#ECFAFF"></path>
    <path d="M275.511 186.597L238.198 183.436V173.264L275.511 176.425V186.597Z" fill="#ECFAFF"></path>
    <path d="M413.277 198.726L280.681 187.489V177.317L413.277 188.554V198.726Z" fill="#ECFAFF"></path>
    <path d="M275.048 203.288L237.735 200.127V189.955L275.048 193.116V203.288Z" fill="#ECFAFF"></path>
    <path d="M412.808 215.417L280.218 204.18V194.008L412.808 205.245V215.417Z" fill="#ECFAFF"></path>
    <path d="M359.354 98.0416L164.603 81.5358V71.3638L359.354 87.8695V98.0416Z" fill="#165086"></path>
    <path d="M428.122 103.403L398.121 100.861V90.689L428.122 93.2305V103.403Z" fill="#165086"></path>
    <path d="M429.047 262.15L162.281 239.542V229.37L429.047 251.978V262.15Z" fill="#165086"></path>
    <circle opacity="0.8" cx="279.576" cy="169.688" r="71.5" fill="#165086"></circle>
    <path d="M265.466 90.886C222.659 98.7134 194.36 140.091 202.263 183.303C210.166 226.516 251.271 255.202 294.084 247.375C336.891 239.548 365.19 198.171 357.287 154.958C349.385 111.745 308.28 83.0587 265.466 90.886ZM292.196 237.07C255.028 243.867 219.342 218.96 212.481 181.439C205.621 143.917 230.191 107.994 267.354 101.203C304.522 94.406 340.208 119.312 347.069 156.834C353.929 194.355 329.359 230.279 292.196 237.07Z" fill="#07345E"></path>
    <path d="M401.345 301.842C397.281 305.478 391.393 305.38 386.362 299.648L323.859 231.622L338.576 218.457L401.079 286.483C409.201 296.678 401.345 301.842 401.345 301.842Z" fill="#07345E"></path>
  </g>
  <defs>
    <clipPath id="clip0_2305_8201">
      <rect width="480.525" height="480.12" fill="white" transform="translate(0.928223 0.805176)"></rect>
    </clipPath>
  </defs>
</svg>
